<svg xmlns="http://www.w3.org/2000/svg" viewBox="0 0 4689.54 4698.54"><defs><style>.cls-1,.cls-2,.cls-3,.cls-4,.cls-5,.cls-7{fill:none;stroke-miterlimit:10;}.cls-1{stroke:#999;stroke-width:9px;}.cls-2{stroke:#d3bc59;}.cls-2,.cls-3,.cls-4,.cls-5{stroke-width:5px;}.cls-3,.cls-4,.cls-5{stroke:#b3b3b3;}.cls-4{stroke-dasharray:72.71 61.08;}.cls-5{stroke-dasharray:72.74 61.1;}.cls-6{fill:#999;}.cls-7{stroke:#ccc;stroke-width:3px;}.cls-8{fill:#ccc;}</style></defs><title>road</title><g id="圖層_2" data-name="圖層 2"><g id="圖層_2-2" data-name="圖層 2"><line class="cls-1" x1="2095.44" y1="2821.16" x2="2095.44" y2="4697.19"/><line class="cls-2" x1="2337.51" y1="2821.83" x2="2337.51" y2="4697.87"/><line class="cls-2" x1="2352.3" y1="2821.83" x2="2352.3" y2="4697.87"/><line class="cls-3" x1="2476.03" y1="2822.51" x2="2476.03" y2="2860.01"/><line class="cls-4" x1="2476.03" y1="2921.08" x2="2476.03" y2="4629.83"/><line class="cls-3" x1="2476.03" y1="4660.37" x2="2476.03" y2="4697.87"/><line class="cls-3" x1="2220.51" y1="2821.83" x2="2220.51" y2="2859.33"/><line class="cls-5" x1="2220.51" y1="2920.43" x2="2220.51" y2="4629.82"/><line class="cls-3" x1="2220.51" y1="4660.37" x2="2220.51" y2="4697.87"/><line class="cls-1" x1="2595.72" y1="2822.51" x2="2595.72" y2="4698.54"/><rect class="cls-6" x="2354.99" y="2822.51" width="240.72" height="34.29"/><line class="cls-7" x1="2158.91" y1="2823.72" x2="2158.91" y2="2879.12"/><polyline class="cls-7" points="2172.77 2864.65 2159.13 2878.29 2145.87 2865.03"/><rect class="cls-8" x="2568.08" y="2702.5" width="26.97" height="86.78"/><rect class="cls-8" x="2515.49" y="2702.5" width="26.97" height="86.78"/><rect class="cls-8" x="2462.9" y="2702.5" width="26.97" height="86.78"/><rect class="cls-8" x="2410.31" y="2702.5" width="26.97" height="86.78"/><rect class="cls-8" x="2357.72" y="2702.5" width="26.97" height="86.78"/><rect class="cls-8" x="2305.13" y="2702.5" width="26.97" height="86.78"/><rect class="cls-8" x="2252.54" y="2702.5" width="26.97" height="86.78"/><rect class="cls-8" x="2199.95" y="2702.5" width="26.97" height="86.78"/><rect class="cls-8" x="2147.36" y="2702.5" width="26.97" height="86.78"/><rect class="cls-8" x="2094.77" y="2702.5" width="26.97" height="86.78"/><rect class="cls-3" x="2352.77" y="2604" width="243" height="84.5"/><line class="cls-1" x1="1877.38" y1="2103.44" x2="1.34" y2="2103.44"/><line class="cls-2" x1="1876.71" y1="2345.51" x2="0.67" y2="2345.51"/><line class="cls-2" x1="1876.71" y1="2360.3" x2="0.67" y2="2360.3"/><line class="cls-3" x1="1876.03" y1="2484.03" x2="1838.53" y2="2484.03"/><line class="cls-4" x1="1777.45" y1="2484.03" x2="68.71" y2="2484.03"/><line class="cls-3" x1="38.17" y1="2484.03" x2="0.67" y2="2484.03"/><line class="cls-3" x1="1876.71" y1="2228.51" x2="1839.21" y2="2228.51"/><line class="cls-5" x1="1778.1" y1="2228.51" x2="68.72" y2="2228.51"/><line class="cls-3" x1="38.17" y1="2228.51" x2="0.67" y2="2228.51"/><line class="cls-1" x1="1876.03" y1="2603.72" y2="2603.72"/><rect class="cls-6" x="1738.52" y="2466.21" width="240.72" height="34.29" transform="translate(4342.24 624.47) rotate(90)"/><line class="cls-7" x1="1874.82" y1="2166.91" x2="1819.42" y2="2166.91"/><polyline class="cls-7" points="1833.89 2180.77 1820.25 2167.13 1833.5 2153.87"/><rect class="cls-8" x="1939.16" y="2546.17" width="26.97" height="86.78" transform="translate(4542.21 636.91) rotate(90)"/><rect class="cls-8" x="1939.16" y="2493.58" width="26.97" height="86.78" transform="translate(4489.62 584.32) rotate(90)"/><rect class="cls-8" x="1939.16" y="2440.99" width="26.97" height="86.78" transform="translate(4437.03 531.73) rotate(90)"/><rect class="cls-8" x="1939.16" y="2388.4" width="26.97" height="86.78" transform="translate(4384.44 479.14) rotate(90)"/><rect class="cls-8" x="1939.16" y="2335.81" width="26.97" height="86.78" transform="translate(4331.85 426.55) rotate(90)"/><rect class="cls-8" x="1939.16" y="2283.22" width="26.97" height="86.78" transform="translate(4279.26 373.97) rotate(90)"/><rect class="cls-8" x="1939.16" y="2230.63" width="26.97" height="86.78" transform="translate(4226.67 321.38) rotate(90)"/><rect class="cls-8" x="1939.16" y="2178.04" width="26.97" height="86.78" transform="translate(4174.08 268.79) rotate(90)"/><rect class="cls-8" x="1939.16" y="2125.45" width="26.97" height="86.78" transform="translate(4121.49 216.2) rotate(90)"/><rect class="cls-8" x="1939.16" y="2072.86" width="26.97" height="86.78" transform="translate(4068.9 163.61) rotate(90)"/><rect class="cls-3" x="1930.79" y="2440.02" width="243" height="84.5" transform="translate(4534.56 429.98) rotate(90)"/><line class="cls-1" x1="2812.16" y1="2596.1" x2="4688.19" y2="2596.1"/><line class="cls-2" x1="2812.83" y1="2354.03" x2="4688.87" y2="2354.03"/><line class="cls-2" x1="2812.83" y1="2339.23" x2="4688.87" y2="2339.23"/><line class="cls-3" x1="2813.51" y1="2215.51" x2="2851.01" y2="2215.51"/><line class="cls-4" x1="2912.08" y1="2215.51" x2="4620.83" y2="2215.51"/><line class="cls-3" x1="4651.37" y1="2215.51" x2="4688.87" y2="2215.51"/><line class="cls-3" x1="2812.83" y1="2471.03" x2="2850.33" y2="2471.03"/><line class="cls-5" x1="2911.43" y1="2471.03" x2="4620.82" y2="2471.03"/><line class="cls-3" x1="4651.37" y1="2471.03" x2="4688.87" y2="2471.03"/><line class="cls-1" x1="2813.51" y1="2095.82" x2="4689.54" y2="2095.82"/><rect class="cls-6" x="2710.29" y="2199.04" width="240.72" height="34.29" transform="translate(614.47 5046.83) rotate(-90)"/><line class="cls-7" x1="2814.72" y1="2532.63" x2="2870.12" y2="2532.63"/><polyline class="cls-7" points="2855.65 2518.77 2869.29 2532.41 2856.03 2545.66"/><rect class="cls-8" x="2723.41" y="2065.59" width="26.97" height="86.78" transform="translate(627.91 4845.87) rotate(-90)"/><rect class="cls-8" x="2723.41" y="2118.18" width="26.97" height="86.78" transform="translate(575.32 4898.46) rotate(-90)"/><rect class="cls-8" x="2723.41" y="2170.77" width="26.97" height="86.78" transform="translate(522.73 4951.05) rotate(-90)"/><rect class="cls-8" x="2723.41" y="2223.36" width="26.97" height="86.78" transform="translate(470.14 5003.64) rotate(-90)"/><rect class="cls-8" x="2723.41" y="2275.95" width="26.97" height="86.78" transform="translate(417.55 5056.23) rotate(-90)"/><rect class="cls-8" x="2723.41" y="2328.53" width="26.97" height="86.78" transform="translate(364.97 5108.82) rotate(-90)"/><rect class="cls-8" x="2723.41" y="2381.12" width="26.97" height="86.78" transform="translate(312.38 5161.41) rotate(-90)"/><rect class="cls-8" x="2723.41" y="2433.71" width="26.97" height="86.78" transform="translate(259.79 5214) rotate(-90)"/><rect class="cls-8" x="2723.41" y="2486.3" width="26.97" height="86.78" transform="translate(207.2 5266.59) rotate(-90)"/><rect class="cls-8" x="2723.41" y="2538.89" width="26.97" height="86.78" transform="translate(154.61 5319.17) rotate(-90)"/><rect class="cls-3" x="2515.75" y="2174.02" width="243" height="84.5" transform="translate(420.98 4853.52) rotate(-90)"/><line class="cls-1" x1="2587.1" y1="1877.38" x2="2587.1" y2="1.34"/><line class="cls-2" x1="2345.03" y1="1876.71" x2="2345.03" y2="0.67"/><line class="cls-2" x1="2330.23" y1="1876.71" x2="2330.23" y2="0.67"/><line class="cls-3" x1="2206.51" y1="1876.03" x2="2206.51" y2="1838.53"/><line class="cls-4" x1="2206.51" y1="1777.45" x2="2206.51" y2="68.71"/><line class="cls-3" x1="2206.51" y1="38.17" x2="2206.51" y2="0.67"/><line class="cls-3" x1="2462.03" y1="1876.71" x2="2462.03" y2="1839.21"/><line class="cls-5" x1="2462.03" y1="1778.1" x2="2462.03" y2="68.72"/><line class="cls-3" x1="2462.03" y1="38.17" x2="2462.03" y2="0.67"/><line class="cls-1" x1="2086.82" y1="1876.03" x2="2086.82"/><rect class="cls-6" x="2086.82" y="1841.74" width="240.72" height="34.29" transform="translate(4414.37 3717.77) rotate(180)"/><line class="cls-7" x1="2523.63" y1="1874.82" x2="2523.63" y2="1819.42"/><polyline class="cls-7" points="2509.77 1833.89 2523.41 1820.25 2536.66 1833.5"/><rect class="cls-8" x="2087.49" y="1909.26" width="26.97" height="86.78" transform="translate(4201.96 3905.3) rotate(180)"/><rect class="cls-8" x="2140.08" y="1909.26" width="26.97" height="86.78" transform="translate(4307.13 3905.3) rotate(180)"/><rect class="cls-8" x="2192.67" y="1909.26" width="26.97" height="86.78" transform="translate(4412.31 3905.3) rotate(180)"/><rect class="cls-8" x="2245.26" y="1909.26" width="26.97" height="86.78" transform="translate(4517.49 3905.3) rotate(180)"/><rect class="cls-8" x="2297.85" y="1909.26" width="26.97" height="86.78" transform="translate(4622.67 3905.3) rotate(180)"/><rect class="cls-8" x="2350.44" y="1909.26" width="26.97" height="86.78" transform="translate(4727.85 3905.3) rotate(180)"/><rect class="cls-8" x="2403.03" y="1909.26" width="26.97" height="86.78" transform="translate(4833.03 3905.3) rotate(180)"/><rect class="cls-8" x="2455.62" y="1909.26" width="26.97" height="86.78" transform="translate(4938.21 3905.3) rotate(180)"/><rect class="cls-8" x="2508.21" y="1909.26" width="26.97" height="86.78" transform="translate(5043.39 3905.3) rotate(180)"/><rect class="cls-8" x="2560.8" y="1909.26" width="26.97" height="86.78" transform="translate(5148.57 3905.3) rotate(180)"/><rect class="cls-3" x="2086.77" y="2010.04" width="243" height="84.5" transform="translate(4416.54 4104.58) rotate(180)"/></g></g></svg>