<?xml version="1.0" encoding="utf-8"?>
<!-- Generator: Adobe Illustrator 21.1.0, SVG Export Plug-In . SVG Version: 6.00 Build 0)  -->
<svg version="1.1" id="圖層_1" xmlns="http://www.w3.org/2000/svg" xmlns:xlink="http://www.w3.org/1999/xlink" x="0px" y="0px"
	 viewBox="0 0 4689.5 4698.5" style="enable-background:new 0 0 4689.5 4698.5;" xml:space="preserve">
<style type="text/css">
	.st0{fill:none;stroke:#999999;stroke-width:9;stroke-miterlimit:10;}
	.st1{fill:none;stroke:#D3BC59;stroke-width:5;stroke-miterlimit:10;}
	.st2{fill:none;stroke:#B3B3B3;stroke-width:5;stroke-miterlimit:10;}
	.st3{fill:none;stroke:#B3B3B3;stroke-width:5;stroke-miterlimit:10;stroke-dasharray:72.71,61.08;}
	.st4{fill:none;stroke:#B3B3B3;stroke-width:5;stroke-miterlimit:10;stroke-dasharray:72.74,61.1;}
	.st5{fill:#999999;}
	.st6{fill:none;stroke:#CCCCCC;stroke-width:3;stroke-miterlimit:10;}
	.st7{fill:#CCCCCC;}
</style>
<title>road</title>
<g id="圖層_2">
	<g id="圖層_2-2">
		<line class="st0" x1="2095.4" y1="2821.2" x2="2095.4" y2="4697.2"/>
		<line class="st1" x1="2337.5" y1="2821.8" x2="2337.5" y2="4697.9"/>
		<line class="st1" x1="2352.3" y1="2821.8" x2="2352.3" y2="4697.9"/>
		<line class="st2" x1="2476" y1="2822.5" x2="2476" y2="2860"/>
		<line class="st3" x1="2476" y1="2921.1" x2="2476" y2="4629.8"/>
		<line class="st2" x1="2476" y1="4660.4" x2="2476" y2="4697.9"/>
		<line class="st2" x1="2220.5" y1="2821.8" x2="2220.5" y2="2859.3"/>
		<line class="st4" x1="2220.5" y1="2920.4" x2="2220.5" y2="4629.8"/>
		<line class="st2" x1="2220.5" y1="4660.4" x2="2220.5" y2="4697.9"/>
		<line class="st0" x1="2595.7" y1="2822.5" x2="2595.7" y2="4698.5"/>
		<rect x="2355" y="2822.5" class="st5" width="240.7" height="34.3"/>
		<line class="st6" x1="2158.9" y1="2823.7" x2="2158.9" y2="2879.1"/>
		<polyline class="st6" points="2172.8,2864.6 2159.1,2878.3 2145.9,2865 		"/>
		<rect x="2568.1" y="2702.5" class="st7" width="27" height="86.8"/>
		<rect x="2515.5" y="2702.5" class="st7" width="27" height="86.8"/>
		<rect x="2462.9" y="2702.5" class="st7" width="27" height="86.8"/>
		<rect x="2410.3" y="2702.5" class="st7" width="27" height="86.8"/>
		<rect x="2357.7" y="2702.5" class="st7" width="27" height="86.8"/>
		<rect x="2305.1" y="2702.5" class="st7" width="27" height="86.8"/>
		<rect x="2252.5" y="2702.5" class="st7" width="27" height="86.8"/>
		<rect x="2199.9" y="2702.5" class="st7" width="27" height="86.8"/>
		<rect x="2147.4" y="2702.5" class="st7" width="27" height="86.8"/>
		<rect x="2094.8" y="2702.5" class="st7" width="27" height="86.8"/>
		<rect x="2352.8" y="2604" class="st2" width="243" height="84.5"/>
		<line class="st0" x1="1877.4" y1="2103.4" x2="1.3" y2="2103.4"/>
		<line class="st1" x1="1876.7" y1="2345.5" x2="0.7" y2="2345.5"/>
		<line class="st1" x1="1876.7" y1="2360.3" x2="0.7" y2="2360.3"/>
		<line class="st2" x1="1876" y1="2484" x2="1838.5" y2="2484"/>
		<line class="st3" x1="1777.4" y1="2484" x2="68.7" y2="2484"/>
		<line class="st2" x1="38.2" y1="2484" x2="0.7" y2="2484"/>
		<line class="st2" x1="1876.7" y1="2228.5" x2="1839.2" y2="2228.5"/>
		<line class="st4" x1="1778.1" y1="2228.5" x2="68.7" y2="2228.5"/>
		<line class="st2" x1="38.2" y1="2228.5" x2="0.7" y2="2228.5"/>
		<line class="st0" x1="1876" y1="2603.7" x2="0" y2="2603.7"/>
		<rect x="1841.7" y="2363" class="st5" width="34.3" height="240.7"/>
		<line class="st6" x1="1874.8" y1="2166.9" x2="1819.4" y2="2166.9"/>
		<polyline class="st6" points="1833.9,2180.8 1820.3,2167.1 1833.5,2153.9 		"/>
		<rect x="1909.3" y="2576.1" class="st7" width="86.8" height="27"/>
		<rect x="1909.3" y="2523.5" class="st7" width="86.8" height="27"/>
		<rect x="1909.3" y="2470.9" class="st7" width="86.8" height="27"/>
		<rect x="1909.3" y="2418.3" class="st7" width="86.8" height="27"/>
		<rect x="1909.3" y="2365.7" class="st7" width="86.8" height="27"/>
		<rect x="1909.3" y="2313.1" class="st7" width="86.8" height="27"/>
		<rect x="1909.3" y="2260.5" class="st7" width="86.8" height="27"/>
		<rect x="1909.3" y="2207.9" class="st7" width="86.8" height="27"/>
		<rect x="1909.3" y="2155.4" class="st7" width="86.8" height="27"/>
		<rect x="1909.3" y="2102.8" class="st7" width="86.8" height="27"/>
		<rect x="2010" y="2360.8" class="st2" width="84.5" height="243"/>
		<line class="st0" x1="2812.2" y1="2596.1" x2="4688.2" y2="2596.1"/>
		<line class="st1" x1="2812.8" y1="2354" x2="4688.9" y2="2354"/>
		<line class="st1" x1="2812.8" y1="2339.2" x2="4688.9" y2="2339.2"/>
		<line class="st2" x1="2813.5" y1="2215.5" x2="2851" y2="2215.5"/>
		<line class="st3" x1="2912.1" y1="2215.5" x2="4620.8" y2="2215.5"/>
		<line class="st2" x1="4651.4" y1="2215.5" x2="4688.9" y2="2215.5"/>
		<line class="st2" x1="2812.8" y1="2471" x2="2850.3" y2="2471"/>
		<line class="st4" x1="2911.4" y1="2471" x2="4620.8" y2="2471"/>
		<line class="st2" x1="4651.4" y1="2471" x2="4688.9" y2="2471"/>
		<line class="st0" x1="2813.5" y1="2095.8" x2="4689.5" y2="2095.8"/>
		<rect x="2813.5" y="2095.8" class="st5" width="34.3" height="240.7"/>
		<line class="st6" x1="2814.7" y1="2532.6" x2="2870.1" y2="2532.6"/>
		<polyline class="st6" points="2855.6,2518.8 2869.3,2532.4 2856,2545.7 		"/>
		<rect x="2693.5" y="2095.5" class="st7" width="86.8" height="27"/>
		<rect x="2693.5" y="2148.1" class="st7" width="86.8" height="27"/>
		<rect x="2693.5" y="2200.7" class="st7" width="86.8" height="27"/>
		<rect x="2693.5" y="2253.3" class="st7" width="86.8" height="27"/>
		<rect x="2693.5" y="2305.9" class="st7" width="86.8" height="27"/>
		<rect x="2693.5" y="2358.4" class="st7" width="86.8" height="27"/>
		<rect x="2693.5" y="2411" class="st7" width="86.8" height="27"/>
		<rect x="2693.5" y="2463.6" class="st7" width="86.8" height="27"/>
		<rect x="2693.5" y="2516.2" class="st7" width="86.8" height="27"/>
		<rect x="2693.5" y="2568.8" class="st7" width="86.8" height="27"/>
		<rect x="2595" y="2094.8" class="st2" width="84.5" height="243"/>
		<line class="st0" x1="2587.1" y1="1877.4" x2="2587.1" y2="1.3"/>
		<line class="st1" x1="2345" y1="1876.7" x2="2345" y2="0.7"/>
		<line class="st1" x1="2330.2" y1="1876.7" x2="2330.2" y2="0.7"/>
		<line class="st2" x1="2206.5" y1="1876" x2="2206.5" y2="1838.5"/>
		<line class="st3" x1="2206.5" y1="1777.4" x2="2206.5" y2="68.7"/>
		<line class="st2" x1="2206.5" y1="38.2" x2="2206.5" y2="0.7"/>
		<line class="st2" x1="2462" y1="1876.7" x2="2462" y2="1839.2"/>
		<line class="st4" x1="2462" y1="1778.1" x2="2462" y2="68.7"/>
		<line class="st2" x1="2462" y1="38.2" x2="2462" y2="0.7"/>
		<line class="st0" x1="2086.8" y1="1876" x2="2086.8" y2="0"/>
		<rect x="2086.8" y="1841.7" class="st5" width="240.7" height="34.3"/>
		<line class="st6" x1="2523.6" y1="1874.8" x2="2523.6" y2="1819.4"/>
		<polyline class="st6" points="2509.8,1833.9 2523.4,1820.3 2536.7,1833.5 		"/>
		<rect x="2087.5" y="1909.3" class="st7" width="27" height="86.8"/>
		<rect x="2140.1" y="1909.3" class="st7" width="27" height="86.8"/>
		<rect x="2192.7" y="1909.3" class="st7" width="27" height="86.8"/>
		<rect x="2245.3" y="1909.3" class="st7" width="27" height="86.8"/>
		<rect x="2297.8" y="1909.3" class="st7" width="27" height="86.8"/>
		<rect x="2350.4" y="1909.3" class="st7" width="27" height="86.8"/>
		<rect x="2403" y="1909.3" class="st7" width="27" height="86.8"/>
		<rect x="2455.6" y="1909.3" class="st7" width="27" height="86.8"/>
		<rect x="2508.2" y="1909.3" class="st7" width="27" height="86.8"/>
		<rect x="2560.8" y="1909.3" class="st7" width="27" height="86.8"/>
		<rect x="2086.8" y="2010" class="st2" width="243" height="84.5"/>
	</g>
</g>
<g>
	<g>
		<path class="st7" d="M2534.3,2996.5h-5.3v-53.4c0-28.2,5-45.1,9.2-54.2l4.9,2.2c-4,8.7-8.7,24.7-8.7,52V2996.5z"/>
	</g>
	<g>
		<g>
			<polygon class="st7" points="2547.1,2897.2 2547.7,2879.1 2531.7,2887.7 			"/>
		</g>
	</g>
</g>
<g>
	<g>
		<path class="st7" d="M2424.5,2996.5l-5.3,0v-53.4c0-32.7-14.5-46.8-23.1-52.2l2.9-4.5c6.4,4.1,15.7,12.4,21.2,28.1l0.3-22.8
			l5.3,0.1L2424.5,2996.5z"/>
	</g>
	<g>
		<g>
			<polygon class="st7" points="2416.1,2893.7 2423.2,2881.8 2430,2893.8 			"/>
		</g>
	</g>
	<g>
		<g>
			<polygon class="st7" points="2402.3,2883.5 2388.5,2884.5 2396.2,2895.9 			"/>
		</g>
	</g>
</g>
</svg>
